<?xml version="1.0" encoding="utf-8"?>
<!-- Generator: Adobe Illustrator 24.1.2, SVG Export Plug-In . SVG Version: 6.00 Build 0)  -->
<svg version="1.1" id="Layer_1" xmlns="http://www.w3.org/2000/svg" xmlns:xlink="http://www.w3.org/1999/xlink" x="0px" y="0px"
	 viewBox="0 0 920.3 176.2" style="enable-background:new 0 0 920.3 176.2;" xml:space="preserve">
<style type="text/css">
	.st0{fill:#FFFFFF;}
	.st1{fill:#1F3F49;}
	.st2{fill:#B1C135;}
</style>
<g>
	<g>
		<path class="st0" d="M220.6,60.5v20.8h-9.7v-56h21.4c6.3,0,11.2,1.6,14.9,4.9s5.5,7.6,5.5,12.9c0,5.5-1.8,9.8-5.4,12.8
			s-8.6,4.6-15.1,4.6L220.6,60.5L220.6,60.5z M220.6,52.6h11.7c3.5,0,6.1-0.8,7.9-2.4s2.7-4,2.7-7.1c0-3-0.9-5.4-2.8-7.2
			s-4.4-2.7-7.6-2.8h-11.9L220.6,52.6L220.6,52.6z"/>
		<path class="st0" d="M284.5,59.8h-10.8v21.5H264V25.3h19.7c6.5,0,11.4,1.5,14.9,4.4s5.3,7.1,5.3,12.6c0,3.7-0.9,6.9-2.7,9.4
			c-1.8,2.5-4.3,4.5-7.5,5.8l12.6,23.3v0.5h-10.4L284.5,59.8z M273.7,51.9h10c3.3,0,5.8-0.8,7.7-2.5s2.8-3.9,2.8-6.8
			c0-3-0.9-5.3-2.6-7c-1.7-1.6-4.2-2.5-7.6-2.5h-10.2L273.7,51.9L273.7,51.9z"/>
		<path class="st0" d="M348.5,56.3h-23v17.2h26.9v7.8h-36.6v-56h36.3v7.8h-26.6v15.4h23L348.5,56.3L348.5,56.3L348.5,56.3z"/>
		<path class="st0" d="M375.7,25.3l16.1,42.9l16.1-42.9h12.6v56h-9.7V62.8l1-24.7l-16.5,43.1h-7l-16.5-43l1,24.6v18.5h-9.7v-56
			H375.7z"/>
		<path class="st0" d="M445,81.3h-9.7V25.3h9.7V81.3z"/>
		<path class="st0" d="M492.4,56.3h-23v17.2h26.9v7.8h-36.6v-56H496v7.8h-26.6v15.4h23L492.4,56.3L492.4,56.3L492.4,56.3z"/>
		<path class="st0" d="M527.6,59.8h-10.8v21.5h-9.7V25.3h19.7c6.5,0,11.4,1.5,14.9,4.4s5.3,7.1,5.3,12.6c0,3.7-0.9,6.9-2.7,9.4
			s-4.3,4.5-7.5,5.8l12.6,23.3v0.5h-10.6L527.6,59.8z M516.8,51.9h10c3.3,0,5.8-0.8,7.7-2.5s2.8-3.9,2.8-6.8c0-3-0.9-5.3-2.6-7
			c-1.7-1.6-4.2-2.5-7.6-2.5h-10.2L516.8,51.9L516.8,51.9z"/>
	</g>
	<g>
		<path class="st0" d="M589.1,25.3l16.1,42.9l16.2-42.9H634v56h-9.7V62.8l1-24.7l-16.6,43.2h-7l-16.5-43.1l1,24.6v18.5h-9.7v-56
			H589.1L589.1,25.3z"/>
		<path class="st0" d="M680.9,56.3h-23v17.2h26.9v7.8h-36.6v-56h36.3v7.8H658v15.4h23L680.9,56.3L680.9,56.3L680.9,56.3z"/>
		<path class="st0" d="M695.5,81.3v-56H712c4.9,0,9.3,1.1,13.2,3.3s6.8,5.3,8.9,9.4c2.1,4.1,3.2,8.7,3.2,13.9v2.8c0,5.3-1,10-3.2,14
			c-2.1,4-5.1,7.1-9,9.3c-3.9,2.2-8.4,3.3-13.4,3.3H695.5L695.5,81.3L695.5,81.3z M705.3,33.1v40.3h6.3c5.1,0,9-1.6,11.8-4.8
			c2.7-3.2,4.1-7.8,4.2-13.7v-3.1c0-6.1-1.3-10.7-4-13.9c-2.7-3.2-6.5-4.8-11.5-4.8H705.3L705.3,33.1L705.3,33.1z"/>
		<path class="st0" d="M759.9,81.3h-9.7v-56h9.7V81.3z"/>
		<path class="st0" d="M817.4,63c-0.6,6-2.8,10.6-6.6,14s-9,5-15.3,5c-4.5,0-8.4-1.1-11.8-3.2c-3.4-2.1-6-5.1-7.9-9
			c-1.8-3.9-2.8-8.4-2.9-13.6V51c0-5.3,0.9-9.9,2.8-14s4.6-7.1,8-9.3s7.5-3.3,12.1-3.3c6.2,0,11.1,1.7,14.9,5
			c3.8,3.3,6,8.1,6.6,14.2h-9.7c-0.5-4-1.6-6.9-3.5-8.7s-4.6-2.7-8.3-2.7c-4.2,0-7.5,1.5-9.8,4.6s-3.4,7.6-3.5,13.6v5
			c0,6,1.1,10.7,3.3,13.9c2.2,3.2,5.3,4.8,9.5,4.8c3.8,0,6.7-0.9,8.6-2.6c1.9-1.7,3.1-4.6,3.7-8.6L817.4,63L817.4,63z"/>
		<path class="st0" d="M860.1,68.3h-21.7l-4.5,13h-10.1l21.1-56h8.7l21.2,56.1h-10.2L860.1,68.3z M841.3,60.4h16.2l-8.1-23.2
			L841.3,60.4z"/>
		<path class="st0" d="M893.8,73.5h25.4v7.8h-35.1v-56h9.7L893.8,73.5L893.8,73.5z"/>
	</g>
	<g>
		<path class="st0" d="M254,147.1c-2,2.6-4.8,4.6-8.3,5.9c-3.5,1.4-7.6,2-12.1,2c-4.6,0-8.7-1.1-12.3-3.1c-3.6-2.1-6.3-5.1-8.2-9
			s-2.9-8.4-3-13.6V125c0-8.3,2-14.9,6-19.5s9.6-7,16.7-7c6.1,0,11,1.5,14.6,4.6s5.8,7.4,6.5,13.1h-9.4c-1.1-6.7-4.9-10-11.6-10
			c-4.3,0-7.6,1.6-9.8,4.6s-3.4,7.6-3.5,13.6v4.2c0,5.9,1.3,10.6,3.8,13.9c2.5,3.3,6,4.9,10.5,4.9c4.9,0,8.4-1.1,10.5-3.3v-10.8H233
			V126h20.9L254,147.1L254,147.1z"/>
		<path class="st0" d="M287.5,133h-10.7v21.2h-9.6V99h19.4c6.4,0,11.3,1.4,14.7,4.3c3.5,2.9,5.2,7,5.2,12.4c0,3.7-0.9,6.8-2.7,9.3
			c-1.8,2.5-4.3,4.4-7.4,5.7l12.4,23v0.5h-10.3L287.5,133z M276.8,125.3h9.9c3.2,0,5.8-0.8,7.6-2.4c1.8-1.6,2.7-3.8,2.7-6.7
			c0-3-0.9-5.2-2.5-6.9s-4.2-2.4-7.5-2.5h-10.1L276.8,125.3C276.9,125.3,276.8,125.3,276.8,125.3z"/>
		<path class="st0" d="M362.5,128.1c0,5.4-0.9,10.2-2.8,14.2s-4.5,7.2-8,9.4c-3.5,2.2-7.5,3.3-12,3.3s-8.5-1.1-12-3.3
			c-3.5-2.2-6.2-5.3-8.1-9.3s-2.9-8.7-2.9-14v-3.1c0-5.4,1-10.1,2.9-14.3c1.9-4.1,4.6-7.3,8.1-9.4c3.5-2.2,7.5-3.3,12-3.3
			s8.5,1.1,12,3.2c3.5,2.2,6.1,5.3,8.1,9.3s2.9,8.8,2.9,14.2L362.5,128.1L362.5,128.1L362.5,128.1z M352.9,125.3
			c0-6.1-1.2-10.8-3.5-14.1c-2.3-3.2-5.6-4.9-9.8-4.9c-4.1,0-7.4,1.6-9.7,4.9s-3.5,7.8-3.6,13.8v3.2c0,6.1,1.2,10.8,3.5,14.1
			c2.4,3.3,5.6,5,9.8,5c4.2,0,7.5-1.6,9.8-4.9c2.3-3.2,3.4-8,3.4-14.2L352.9,125.3L352.9,125.3z"/>
		<path class="st0" d="M415.1,99.2v36.9c0,5.9-1.9,10.5-5.6,13.9c-3.8,3.4-8.7,5.1-15,5.1s-11.3-1.7-15-5.1s-5.6-8.1-5.6-14.1V99.2
			h9.5v36.9c0,3.7,0.9,6.5,2.8,8.4s4.6,2.9,8.3,2.9c7.4,0,11.1-3.9,11.1-11.7V99.2H415.1L415.1,99.2z"/>
		<path class="st0" d="M437.7,133.9v20.5h-9.6V99.2h21.1c6.2,0,11.1,1.6,14.7,4.8s5.4,7.5,5.4,12.7c0,5.4-1.8,9.6-5.3,12.6
			s-8.5,4.5-14.9,4.5L437.7,133.9L437.7,133.9L437.7,133.9z M437.7,126h11.5c3.4,0,6-0.8,7.8-2.4s2.7-3.9,2.7-7c0-3-0.9-5.4-2.7-7.2
			c-1.8-1.8-4.3-2.7-7.5-2.8h-11.8V126L437.7,126z"/>
	</g>
	<g>
		<path class="st1" d="M189.3,24.2c0,0,0,2,0.1,5.6c0,3.5,0.1,8.6,0.2,14.7c0,6.1,0.1,13.2,0.1,20.8s0,15.7,0.1,23.8
			c0,8.1,0,16.2-0.1,23.8c-0.1,7.6-0.1,14.7-0.1,20.8c-0.1,6.1-0.1,11.1-0.2,14.7c-0.1,3.5-0.1,5.6-0.1,5.6s0-2-0.1-5.6
			c0-3.5-0.1-8.6-0.2-14.7c0-6.1-0.1-13.2-0.1-20.8c0-7.6,0-15.7-0.1-23.8c0-8.1,0.1-16.2,0.1-23.8c0.1-7.6,0.1-14.7,0.1-20.8
			c0.1-6.1,0.1-11.1,0.2-14.7C189.3,26.2,189.3,24.2,189.3,24.2z"/>
	</g>
	<g>
		<g>
			<path class="st1" d="M86.9,0.3c-21.5,0-39,17.5-39,39v8.4h15.5v-8.4c0-12.9,10.6-23.5,23.5-23.5c13,0,23.5,10.5,23.5,23.5v98.3
				c0,13-10.5,23.5-23.5,23.5c-12.9,0-23.5-10.5-23.5-23.5v-8.2H47.9v8.2c0,21.5,17.5,39,39,39s39-17.5,39-39V39.3
				C125.9,17.8,108.4,0.3,86.9,0.3z"/>
		</g>
		<g>
			<g>
				<rect x="21.4" y="97.9" class="st1" width="61.3" height="3.9"/>
			</g>
		</g>
		<g>
			<g>
				<rect x="96.9" y="97.9" class="st1" width="11.6" height="3.9"/>
			</g>
		</g>
		<g>
			<g>
				<rect x="101.4" y="104.7" class="st1" width="7.1" height="3.9"/>
			</g>
		</g>
		<g>
			<g>
				<rect x="35.6" y="104.7" class="st1" width="21.7" height="3.9"/>
			</g>
		</g>
		<g>
			<g>
				<rect x="63" y="104.7" class="st1" width="21.7" height="3.9"/>
			</g>
		</g>
		<g>
			<path class="st1" d="M136.1,49.5h-8.2v9.4V65v62.4h8.2c21.5,0,39-17.5,39-39S157.6,49.5,136.1,49.5z"/>
		</g>
		<g>
			<path class="st2" d="M44.9,71.5c0,9.8-7.9,17.8-17.8,17.8c-3.8,0-7.2-1.2-10.1-3.2c0-0.3,0.1-0.6,0.1-0.8
				C19,75,28,67.5,38.6,67.5h5.8C44.7,68.8,44.9,70.2,44.9,71.5z"/>
		</g>
		<g>
			<rect x="110.4" y="47.8" class="st1" width="0.2" height="88.1"/>
		</g>
		<path class="st2" d="M37.8,65h31.7h39.1V49.5H37.8c-21.5,0-39,17.5-39,39s17.5,39,39,39h70.8v-15.2h-8.8c-4.3-7.8-10.1-21.1-7-31
			c0,0,9-1,11,8.6c0,0,2-12.6-8.3-13.3c0,0,4.7-7,13-2.7c0,0-7-14.5-18.6-1.4c0,0-10.9-12.5-20.9,4.2c0,0,13.3-5.8,16.6,0.9
			c0,0-11-1-11,11.3c0,0,5.9-8.1,11.4-6.6c0,0-4.3,14.6,6.8,29.9H69.5v-0.3H37.8c-12.9,0-23.5-10.5-23.5-23.5c0-1.5,0.1-2.9,0.4-4.3
			C16.7,73.3,26.3,65,37.8,65z"/>
	</g>
	<g>
		<path class="st0" d="M630.3,141.3h-21.7l-4.5,13H594l21.1-56h8.7l21.2,56.1h-10.2L630.3,141.3z M611.4,133.5h16.2l-8.1-23.2
			L611.4,133.5z"/>
		<path class="st0" d="M542.1,98.3v36.9c0,5.9-1.9,10.5-5.6,13.9c-3.8,3.4-8.7,5.1-15,5.1c-6.3,0-11.3-1.7-15-5.1
			c-3.7-3.4-5.6-8.1-5.6-14.1V98.3h9.5v36.9c0,3.7,0.9,6.5,2.8,8.4c1.9,1.9,4.6,2.9,8.3,2.9c7.4,0,11.1-3.9,11.1-11.7V98.3H542.1
			L542.1,98.3z"/>
		<g>
			<path class="st0" d="M589.8,138.6c0,10.8-7.8,16.3-23.4,16.3c-5.3,0-10.2-0.6-14.8-1.9l2-9.3c4.5,1.6,8.7,2.3,12.7,2.3
				c4.4,0,7.6-0.4,9.6-1.3c1.9-0.9,2.9-2.3,2.9-4.3c0-2.1-0.9-3.9-2.7-5.3c-1.6-1.3-4.8-2.9-9.6-5c-4.4-1.9-7.6-3.9-9.8-6.2
				c-2.7-2.8-4-6.3-4-10.4c0-4.8,1.8-8.5,5.3-11.2c3.5-2.7,8.6-4,15.2-4c5.4,0,10,0.5,13.7,1.4l-1.5,9.2c-3.7-1.4-7.8-2-12.1-2
				c-6.5,0-9.8,1.7-9.8,5.2c0,1.9,0.8,3.4,2.3,4.5c1.3,1,4.2,2.4,8.7,4.2c4.7,1.9,8.3,4,10.7,6.3
				C588.2,130.3,589.8,134.1,589.8,138.6z"/>
		</g>
	</g>
</g>
</svg>
